<svg width="85" height="45" viewBox="50 60 200 200" fill="none" xmlns="http://www.w3.org/2000/svg">
<ellipse cx="70.5561" cy="160" rx="67.0561" ry="67" fill="#05B552"/>
<path d="M137.612 160.302C137.449 197.302 107.29 227.185 70.254 226.999C33.2179 226.836 3.33802 196.697 3.50066 159.674C3.6633 122.698 33.822 92.8148 70.8582 93.0009C107.894 93.1637 137.774 123.303 137.612 160.302ZM94.6738 193.232C64.1201 191.441 53.4553 206.976 51.643 210.069C57.0103 213.697 62.8654 216.023 68.9529 216.139C78.7812 216.325 87.5872 205.93 94.6738 193.232ZM135.799 160.302C135.962 124.28 106.872 94.9543 70.8349 94.7915C63.3766 94.7683 56.2203 96.0008 49.5287 98.2799C52.5492 103.908 53.6644 111.722 54.0362 114.442C50.7833 108.024 41.5359 99.5589 27.9901 110.582C16.9071 119.605 5.2665 136.349 5.2665 159.698C5.2665 195.72 34.1705 225.046 70.2076 225.208C106.291 225.395 135.637 196.325 135.799 160.302ZM67.0941 122.768C73.5766 113.21 96.2537 95.466 101.551 126.21C92.8614 112.815 76.5274 116.349 67.0941 122.768ZM53.8968 151.814C56.3597 148.489 59.3802 145.14 62.9119 142C75.2495 131.093 88.7954 127.024 93.1403 132.931C95.789 136.512 94.4414 142.954 90.2127 149.884C91.4209 146.14 91.3512 142.768 89.7248 140.326C85.5425 134 72.5775 136.256 60.7743 145.372C58.2185 147.396 55.9182 149.558 53.8968 151.814ZM33.3805 157.256C27.386 156.116 24.1563 146.582 26.1778 135.977C28.1992 125.373 34.7049 117.698 40.6762 118.838C46.6708 119.977 49.9004 129.512 47.879 140.117C45.8576 150.721 39.3751 158.395 33.3805 157.256ZM116.468 144.465C116.468 144.465 96.4164 218.581 69.2085 218.046C41.9774 217.511 19.2306 176.604 19.7882 163.326C19.7882 163.326 59.2176 182.767 116.468 144.465ZM27.781 136.256C25.9686 146 28.6174 154.698 33.7291 155.674C38.8407 156.674 44.4635 149.582 46.2758 139.837C48.0881 130.093 45.4394 121.396 40.3277 120.419C35.2161 119.419 29.5933 126.512 27.781 136.256ZM38.7013 144.489C36.6102 144.023 35.4717 140.93 35.9828 137.349C37.0051 137.558 38.0739 137.024 38.4922 136.024C38.9801 134.907 38.4922 133.628 37.4234 133.093C38.6083 131.093 40.258 129.931 41.7915 130.279C44.0685 130.768 45.207 134.349 44.3473 138.279C43.4876 142.21 40.9551 144.977 38.7013 144.489Z" fill="black"/>
<path d="M206.141 145.957C206.126 159.323 197.284 168.94 180.65 168.924L166.674 168.908L166.658 197.775L154.839 197.759L154.9 122.896L180.893 122.912C197.436 122.959 206.156 132.592 206.141 145.957ZM193.927 145.957C193.927 138.255 189.005 133.114 181.713 133.114L166.719 133.098L166.704 158.659L181.683 158.675C188.99 158.675 193.912 153.66 193.927 145.957Z" fill="#221F1F"/>
<path d="M255.542 163.627L255.511 197.096L244.619 197.08V187.985C240.502 194.407 233.924 198.345 226.435 198.345C216.682 198.345 210.317 192.667 210.317 183.999C210.317 175.664 217.107 170.317 229.534 167.755L236.309 166.268C242.568 164.987 244.634 163.595 244.634 160.4C244.634 156.019 240.426 153.441 233.241 153.441C226.146 153.441 218.444 157.284 213.826 162.093L213.841 150.119C218.976 146.054 226.48 143.397 234.486 143.397C247.749 143.397 255.542 150.894 255.542 163.627ZM244.634 174.952V170.571C242.675 171.852 239.91 173.133 236.203 173.987L232.709 174.841C225.311 176.549 221.923 178.89 221.923 182.86C221.923 186.704 224.582 189.061 228.805 189.061C238.056 189.061 244.634 183.825 244.634 174.952Z" fill="#221F1F"/>
<path d="M315.637 143.444L283.234 219.556L271.734 219.54L283.978 191.75L261.008 143.397L273.952 143.412L289.751 178.179L303.636 143.428L315.637 143.444Z" fill="#221F1F"/>
</svg>
