<svg width="190" height="35" viewBox="80 -20 195 80" fill="none" xmlns="http://www.w3.org/2000/svg">
<path d="M345.799 13.5H332.235L318 45H329.348L331.799 38.8317H346.168L348.619 45H360L345.799 13.5ZM334.317 32.5247L339.017 20.7426L343.683 32.5247H334.317Z" fill="white"/>
<path d="M243 21.5743H255.224V45H265.276V21.5743H277.5V13.5H243V21.5743Z" fill="white"/>
<path d="M218.467 32.3861H236.233V26.0792H218.467V21.4356H239.267V13.5H208.5V45H240V37.203H218.467V32.3861Z" fill="white"/>
<path d="M203.898 19.1139V13.5H169.772V21.5743H188.127L169.5 39.4208V45H204V36.8911H185.475L203.898 19.1139Z" fill="white"/>
<path d="M146.984 13.5C134.081 13.5 126 18.7869 126 29.9827C126 41.1785 134.048 46.5 146.984 46.5C159.952 46.5 168 41.144 168 29.9827C168 18.8215 159.952 13.5 146.984 13.5ZM146.984 38.2414C140.532 38.2414 136.59 35.8916 136.59 29.9482C136.59 23.9702 140.532 21.6895 146.984 21.6895C153.403 21.6895 157.41 23.9702 157.41 29.9482C157.41 35.9262 153.403 38.2414 146.984 38.2414Z" fill="white"/>
<path d="M122.633 24.901C122.633 18.2475 118.459 13.5 108.516 13.5H87V45H97.3846V36.0941H104.07L111.536 45H124.5L115.812 34.7772C120.156 32.8366 122.633 28.7475 122.633 24.901ZM97.3846 20.9158H107.6C110.756 20.9158 112.011 22.6485 112.011 24.8663C112.011 26.3564 111.129 29.0941 107.43 29.0941H97.3846V20.9158Z" fill="white"/>
<path d="M304.733 13.5L292.2 25.0049V13.5H282V45H292.2V36.302L296.033 32.9059L304.767 45H317.5L303.433 26.3564L318 13.5H304.733Z" fill="white"/>
<path d="M59.9998 30.1323C59.9337 46.7033 46.4206 60.0659 29.8678 59.9998C13.3151 59.9336 -0.0658351 46.4387 0.000243686 29.8677C0.0663224 13.2967 13.5794 -0.0659071 30.1322 0.000244555C46.7179 0.0663962 60.0658 13.5613 59.9998 30.1323Z" fill="#221F1F"/>
<path d="M40.8037 44.8511C37.6319 50.5401 33.7002 55.2038 29.306 55.1046C26.5637 55.0384 23.9536 54.0131 21.5747 52.3924C22.3346 51.0032 27.1254 44.0573 40.8037 44.8511ZM59.2066 30.1323C59.1405 46.2403 45.9908 59.2721 29.8676 59.1729C13.7444 59.1068 0.792969 45.9757 0.792969 29.8677C0.792969 19.4158 6.01319 11.9076 10.9691 7.87233C17.0483 2.94403 21.1783 6.71468 22.632 9.59227C22.4668 8.36847 21.9712 4.86243 20.6166 2.34867C23.5901 1.32332 26.795 0.76103 30.1319 0.794106C46.2552 0.893333 59.2727 13.9914 59.2066 30.1323ZM28.4469 13.3298C32.676 10.4522 39.9777 8.8646 43.8433 14.8844C41.4975 1.12486 31.3544 9.02998 28.4469 13.3298ZM22.5659 26.3286C23.458 25.3364 24.4822 24.3441 25.6716 23.451C30.9579 19.3827 36.7398 18.3574 38.6231 21.2019C39.3499 22.2934 39.383 23.8149 38.8213 25.4687C40.7045 22.3595 41.2992 19.4819 40.1429 17.8943C38.1935 15.2482 32.1473 17.0674 26.6298 21.9626C25.0108 23.3187 23.6562 24.8402 22.5659 26.3286ZM13.3479 28.7762C16.0241 29.2724 18.9316 25.8656 19.8237 21.1027C20.7157 16.3397 19.295 12.106 16.6188 11.5768C13.9426 11.0807 11.0352 14.4875 10.1431 19.2504C9.25105 23.9802 10.6717 28.247 13.3479 28.7762ZM50.5503 23.021C24.9448 40.1874 7.26869 31.4885 7.26869 31.4885C7.00437 37.4421 17.2135 55.733 29.372 55.9646C41.5636 56.1961 50.5503 23.021 50.5503 23.021ZM10.87 19.3496C11.696 14.9836 14.207 11.8083 16.4867 12.2714C18.7664 12.7014 19.9558 16.6043 19.1629 20.9703C18.3369 25.3364 15.8259 28.5116 13.5462 28.0486C11.2334 27.6186 10.044 23.7156 10.87 19.3496ZM15.7268 23.0541C16.751 23.2857 17.8743 22.0288 18.2708 20.2758C18.6673 18.5227 18.1386 16.902 17.1144 16.7036C16.4206 16.5382 15.6937 17.0674 15.1651 17.9605C15.6276 18.192 15.8589 18.7873 15.6276 19.2835C15.4294 19.7465 14.9669 19.9781 14.5043 19.8788C14.3061 21.4334 14.8017 22.8226 15.7268 23.0541Z" fill="#05BC52"/>
</svg>
