<svg width="200" height="40" viewBox="-30 -20 550 72" fill="none" xmlns="http://www.w3.org/2000/svg">
<path d="M430.739 19.3815L421.752 19.3699L421.762 5.50102L430.75 5.5126C435.121 5.5126 438.077 8.29831 438.077 12.4764C438.077 16.6546 435.106 19.3815 430.739 19.3815ZM430.28 0.0115628L414.712 -1.87935e-05L414.677 40.6124H421.752L421.762 24.9404H430.131C440.1 24.9529 445.399 19.7334 445.399 12.4764C445.399 5.22039 440.172 -1.83587e-05 430.28 0.0115628Z" fill="#06BA52"/>
<path d="M468.465 27.9025C468.465 32.7122 464.519 35.5567 458.967 35.5567C456.45 35.5567 454.847 34.2686 454.847 32.1857C454.847 30.0432 456.881 28.7684 461.315 27.8437L463.414 27.3751C465.635 26.919 467.298 26.2161 468.465 25.5266V27.9025ZM462.381 10.7909C457.579 10.7909 453.083 12.2421 450.007 14.4434V20.9386C452.773 18.3284 457.392 16.2447 461.636 16.2447C465.944 16.2572 468.465 17.6496 468.465 20.0255C468.465 21.7582 467.223 22.5181 463.476 23.2086L459.415 24.0166C451.968 25.409 447.894 28.2998 447.894 32.8289C447.894 37.5345 451.705 40.6124 457.555 40.6124C462.047 40.624 465.983 38.4708 468.451 34.9946V39.9219H474.98L474.994 21.7582C474.994 14.8532 470.326 10.7793 462.381 10.7909Z" fill="#06BA52"/>
<path d="M503.812 10.6855L495.484 29.5406L486.023 10.674H478.265L492.031 36.9142L484.697 52H491.585L511 10.698L503.812 10.6855Z" fill="#06BA52"/>
<path d="M355.644 25.2445L362.359 9.86563L369.037 25.2445H355.644ZM352.654 0.373527L332.306 41.5356H348.545L352.056 33.4841H372.613L376.115 41.5356H392.411L372.068 0.373527H352.654Z" fill="#06BA52"/>
<path d="M223.193 10.9658H241.305V41.5356H256.176V10.9658H274.3V0.373527H223.193V10.9658Z" fill="#06BA52"/>
<path d="M188.499 25.069H214.096V16.8419H188.499V10.7903H218.452V0.373527H174.123V41.5356H219.507V31.354H188.499V25.069Z" fill="#06BA52"/>
<path d="M167.776 7.72401V0.373527H119.548V10.9658H145.505L119.176 34.2449V41.5356H167.9V30.9558H141.768L167.776 7.72401Z" fill="#06BA52"/>
<path d="M85.7575 32.4548C76.2368 32.4548 70.4513 29.4001 70.4513 21.5819C70.4513 13.7646 76.2368 10.7678 85.7575 10.7678C95.2162 10.7678 101.126 13.7646 101.126 21.5819C101.126 29.4001 95.2162 32.4548 85.7575 32.4548ZM85.7575 -3.43095e-05C66.7152 -3.43095e-05 54.8229 6.93977 54.8229 21.5819C54.8229 36.2232 66.7026 43.2227 85.7575 43.2227C104.862 43.2227 116.754 36.2232 116.754 21.5819C116.741 6.93977 104.862 -3.43095e-05 85.7575 -3.43095e-05Z" fill="#06BA52"/>
<path d="M28.8736 20.7501H14.685V10.0759H29.1222C33.6034 10.0759 35.3413 12.3582 35.3413 15.2375C35.3413 17.1805 34.0998 20.7501 28.8736 20.7501ZM50.4113 15.2838C50.4113 6.57658 44.502 0.385111 30.4373 0.385111H0V41.5356H14.685V29.9019H24.1689L34.7326 41.5356H53.0675L40.7659 28.1933C46.8853 25.6891 50.4113 20.3172 50.4113 15.2838Z" fill="#06BA52"/>
<path d="M312.338 0.373527L294.276 15.413V0.373527H279.591V41.5356H294.276V30.171L299.812 25.7363L312.399 41.5356H330.734L310.45 17.2045L331.441 0.373527H312.338Z" fill="#06BA52"/>
</svg>
